          <svg viewBox="0 0 540 280" xmlns="http://www.w3.org/2000/svg">
            <g xmlns="http://www.w3.org/2000/svg" fill="#d68048" id="shape-svg">
                <path transform="translate(51.94999999999999, 168.55) scale(1.35,1.35)" d="M83.21,0c1,2.14,1.71,4.39,2.68,6.55,2.32.21,4.66.24,7,.5-1.72,1.6-3.63,3-5.37,4.55.52,2.28,1.21,4.51,1.67,6.81-2-1.17-4-2.55-6-3.72-2,1.21-3.89,2.61-6,3.71.51-2.28,1.19-4.52,1.7-6.8-1.7-1.59-3.65-2.9-5.3-4.54,2.32-.3,4.67-.28,7-.53C81.47,4.36,82.26,2.15,83.21,0Z"></path>
                <path transform="translate(51.94999999999999, 168.55) scale(1.35,1.35)" d="M236.34,6.56c1-2.16,1.71-4.41,2.68-6.56,1,2.14,1.71,4.37,2.61,6.54,2.32.24,4.67.23,7,.53C247,8.71,245,10,243.32,11.6c.48,2.29,1.2,4.51,1.68,6.8-1.49-.8-2.89-1.76-4.3-2.68a7.88,7.88,0,0,0-1.65-.92,2.76,2.76,0,0,0-1,.47c-1.64,1.08-3.26,2.18-5,3.14.44-2.29,1.14-4.52,1.67-6.79-1.73-1.59-3.65-3-5.38-4.56C231.66,6.8,234,6.77,236.34,6.56Z"></path>
                <path transform="translate(51.94999999999999, 168.55) scale(1.35,1.35)" d="M1.19,6a9.34,9.34,0,0,1,1.75-.09c2.34,0,4.68,0,7,0q26.29,0,52.59,0a2.41,2.41,0,0,1,1.55.42,1.49,1.49,0,0,1-.3,2.41A5.32,5.32,0,0,1,61.94,9c-2.76,0-5.51,0-8.26,0q-25.78,0-51.58,0c-.64,0-1.45,0-1.84-.66A1.5,1.5,0,0,1,1.19,6Z"></path>
                <path transform="translate(51.94999999999999, 168.55) scale(1.35,1.35)" d="M259,6a26.26,26.26,0,0,1,3.2,0h55.48A22.71,22.71,0,0,1,321,6,1.52,1.52,0,0,1,322,8.28c-.34.56-1.06.61-1.64.65q-30.34,0-60.67,0c-.69,0-1.57-.1-1.87-.83A1.49,1.49,0,0,1,259,6Z"></path>
                <path transform="translate(51.94999999999999, 168.55) scale(1.35,1.35)" d="M26.75,13.17a33.64,33.64,0,0,1,3.62-.05c10.73,0,21.45,0,32.18,0a2.66,2.66,0,0,1,1.44.33,1.52,1.52,0,0,1,.07,2.35,2.79,2.79,0,0,1-1.5.37q-17.55,0-35.09,0c-.69,0-1.57-.1-1.88-.83A1.5,1.5,0,0,1,26.75,13.17Z"></path>
                <path transform="translate(51.94999999999999, 168.55) scale(1.35,1.35)" d="M259,13.17a33.6,33.6,0,0,1,3.62-.05c10.72,0,21.45,0,32.17,0a2.36,2.36,0,0,1,1.55.42,1.53,1.53,0,0,1,0,2.26,2.68,2.68,0,0,1-1.5.37q-17.55,0-35.1,0c-.69,0-1.57-.1-1.87-.84A1.48,1.48,0,0,1,259,13.17Z"></path></g>
                <path xmlns="http://www.w3.org/2000/svg" id="SvgjsPath27028363" d="M0.79 0L0.79-12.26Q0.79-12.44 0.89-12.52Q0.99-12.60 1.26-12.60L1.26-12.60L3.04-12.60Q6.07-12.60 6.07-9.83L6.07-9.83Q6.07-8.46 5.54-7.73Q5.02-7.00 4.36-6.91L4.36-6.91Q5.20-6.86 5.84-6.29Q6.48-5.72 6.48-4.28L6.48-4.28Q6.48-2.12 5.52-1.06Q4.55 0 3.06 0L3.06 0L0.79 0ZM2.25-7.45L3.15-7.45Q3.76-7.45 4.12-7.97Q4.48-8.50 4.48-9.54L4.48-9.54Q4.48-11.32 3.15-11.32L3.15-11.32L2.25-11.32L2.25-7.45ZM2.25-1.28L3.08-1.28Q3.82-1.28 4.29-1.99Q4.77-2.70 4.77-4.16L4.77-4.16Q4.77-5.04 4.56-5.49Q4.36-5.94 4.01-6.08Q3.65-6.21 3.10-6.21L3.10-6.21L2.25-6.21L2.25-1.28ZM10.51-1.22Q11.59-1.22 12.56-1.80L12.56-1.80Q12.69-1.40 12.69-0.81L12.69-0.81Q12.69-0.40 11.96-0.11Q11.23 0.18 10.21 0.18L10.21 0.18Q9.29 0.18 8.67-0.16Q8.05-0.50 7.69-1.42Q7.33-2.34 7.33-4.03L7.33-4.03Q7.33-6.14 7.77-7.27Q8.21-8.41 8.89-8.79Q9.58-9.18 10.51-9.18L10.51-9.18Q12.80-9.18 12.80-6.30L12.80-6.30Q12.80-4.86 12.60-3.96L12.60-3.96Q11.81-3.80 10.76-3.74Q9.70-3.67 8.82-3.67L8.82-3.67Q8.86-2.70 9.05-2.18Q9.23-1.66 9.59-1.44Q9.94-1.22 10.51-1.22L10.51-1.22ZM10.35-7.90Q9.70-7.90 9.31-7.23Q8.91-6.55 8.84-4.82L8.84-4.82Q10.62-4.82 11.30-5.04L11.30-5.04Q11.39-5.45 11.39-6.12L11.39-6.12Q11.38-7.13 11.16-7.52Q10.94-7.90 10.35-7.90L10.35-7.90ZM14.11 0L14.11-12.56Q14.11-12.91 14.23-13.04Q14.35-13.18 14.62-13.20Q14.89-13.23 15.57-13.23L15.57-13.23L15.57-0.29Q15.57-0.13 15.50-0.07Q15.43-0.02 15.08-0.01Q14.72 0 14.11 0L14.11 0ZM19.39 0.18Q18.23 0.18 17.58-0.37Q16.92-0.92 16.92-2.56L16.92-2.56Q16.92-4.27 17.58-4.89Q18.23-5.51 19.33-5.51L19.33-5.51Q20.18-5.51 20.65-5.27L20.65-5.27L20.65-6.70Q20.65-7.31 20.38-7.54Q20.11-7.78 19.53-7.78L19.53-7.78Q18.88-7.78 18.22-7.66Q17.55-7.54 17.14-7.36L17.14-7.36Q16.94-7.74 16.94-8.21L16.94-8.21Q16.94-8.57 17.14-8.69L17.14-8.69Q17.41-8.87 18.18-9.03Q18.95-9.18 19.89-9.18L19.89-9.18Q21.06-9.18 21.58-8.68Q22.10-8.17 22.10-6.98L22.10-6.98L22.10-6.03Q22.10-2.07 22.00-0.43L22.00-0.43Q21.56-0.16 20.90 0.01Q20.23 0.18 19.39 0.18L19.39 0.18ZM19.64-1.04Q19.93-1.04 20.20-1.13Q20.47-1.22 20.59-1.33L20.59-1.33Q20.65-1.94 20.65-4.25L20.65-4.25Q20.30-4.43 19.80-4.43L19.80-4.43Q19.15-4.43 18.79-4.05Q18.43-3.67 18.43-2.59L18.43-2.59Q18.43-1.67 18.73-1.36Q19.03-1.04 19.64-1.04L19.64-1.04ZM23.58 0L23.58-8.37Q24.73-9.18 26.03-9.18L26.03-9.18Q26.69-9.18 26.99-8.99Q27.29-8.80 27.29-8.42L27.29-8.42Q27.29-7.97 27.13-7.58L27.13-7.58Q26.75-7.79 26.26-7.79L26.26-7.79Q25.56-7.79 25.07-7.38L25.07-7.38L25.06-0.29Q25.06-0.13 24.98-0.07Q24.91-0.02 24.55-0.01Q24.19 0 23.58 0L23.58 0ZM31.00 0.18Q29.93 0.18 29.36-0.14Q28.78-0.47 28.55-1.11Q28.31-1.75 28.31-2.81L28.31-2.81L28.31-8.71Q28.31-8.87 28.38-8.93Q28.44-8.98 28.81-8.99Q29.18-9.00 29.81-9.00L29.81-9.00L29.81-2.68Q29.81-1.76 30.05-1.42Q30.29-1.08 31.03-1.08L31.03-1.08Q31.75-1.08 32.24-1.42L32.24-1.42L32.24-8.71Q32.24-8.87 32.31-8.93Q32.38-8.98 32.73-8.99Q33.08-9.00 33.70-9.00L33.70-9.00L33.70-0.47Q33.16-0.18 32.44 0Q31.72 0.18 31.00 0.18L31.00 0.18ZM37.24 0.18Q36.25 0.18 35.65-0.05Q35.05-0.29 35.05-0.72L35.05-0.72Q35.05-1.15 35.32-1.57L35.32-1.57Q36.05-1.13 37.10-1.13L37.10-1.13Q37.80-1.13 38.19-1.41Q38.57-1.69 38.57-2.23L38.57-2.23Q38.57-2.63 38.41-2.97Q38.25-3.31 37.85-3.65L37.85-3.65L36.11-5.15Q35.06-5.99 35.06-7.06L35.06-7.06Q35.06-8.05 35.81-8.61Q36.56-9.18 38.02-9.18L38.02-9.18Q39.24-9.18 39.75-8.86Q40.27-8.53 40.27-8.17L40.27-8.17Q40.27-8.01 40.18-7.80Q40.09-7.60 39.96-7.43L39.96-7.43Q39.17-7.92 38.18-7.92L38.18-7.92Q37.53-7.92 37.14-7.69Q36.76-7.45 36.76-7.04L36.76-7.04Q36.76-6.77 36.90-6.53Q37.04-6.28 37.48-5.92L37.48-5.92L39.15-4.57Q39.74-4.00 39.99-3.49Q40.23-2.99 40.23-2.32L40.23-2.32Q40.23-1.13 39.43-0.48Q38.63 0.18 37.24 0.18L37.24 0.18ZM41.58 0L41.58-8.33Q41.58-8.68 41.70-8.81Q41.81-8.95 42.08-8.97Q42.35-9.00 43.04-9.00L43.04-9.00L43.04-0.29Q43.04-0.13 42.98-0.07Q42.91-0.02 42.55-0.01Q42.19 0 41.58 0L41.58 0ZM42.25-10.26Q41.53-10.26 41.53-11.30L41.53-11.30Q41.53-12.46 42.35-12.46L42.35-12.46Q42.75-12.46 42.91-12.22Q43.07-11.99 43.07-11.41L43.07-11.41Q43.07-10.87 42.86-10.57Q42.64-10.26 42.25-10.26L42.25-10.26ZM46.87 0.18Q45.72 0.18 45.06-0.37Q44.41-0.92 44.41-2.56L44.41-2.56Q44.41-4.27 45.06-4.89Q45.72-5.51 46.82-5.51L46.82-5.51Q47.66-5.51 48.13-5.27L48.13-5.27L48.13-6.70Q48.13-7.31 47.86-7.54Q47.59-7.78 47.02-7.78L47.02-7.78Q46.37-7.78 45.70-7.66Q45.04-7.54 44.62-7.36L44.62-7.36Q44.42-7.74 44.42-8.21L44.42-8.21Q44.42-8.57 44.62-8.69L44.62-8.69Q44.89-8.87 45.67-9.03Q46.44-9.18 47.38-9.18L47.38-9.18Q48.55-9.18 49.07-8.68Q49.59-8.17 49.59-6.98L49.59-6.98L49.59-6.03Q49.59-2.07 49.48-0.43L49.48-0.43Q49.05-0.16 48.38 0.01Q47.72 0.18 46.87 0.18L46.87 0.18ZM47.12-1.04Q47.41-1.04 47.68-1.13Q47.95-1.22 48.08-1.33L48.08-1.33Q48.13-1.94 48.13-4.25L48.13-4.25Q47.79-4.43 47.29-4.43L47.29-4.43Q46.64-4.43 46.28-4.05Q45.92-3.67 45.92-2.59L45.92-2.59Q45.92-1.67 46.22-1.36Q46.51-1.04 47.12-1.04L47.12-1.04ZM51.07 0L51.07-8.57Q51.62-8.82 52.43-9.00Q53.24-9.18 53.93-9.18L53.93-9.18Q55.33-9.18 55.89-8.63Q56.45-8.08 56.45-6.77L56.45-6.77L56.45-0.29Q56.45-0.13 56.38-0.07Q56.30-0.02 55.94-0.01Q55.57 0 54.95 0L54.95 0L54.95-6.34Q54.95-7.24 54.74-7.58Q54.52-7.92 53.87-7.92L53.87-7.92Q53.55-7.92 53.17-7.84Q52.79-7.76 52.52-7.60L52.52-7.60L52.52-0.29Q52.52-0.13 52.45-0.07Q52.38-0.02 52.02-0.01Q51.66 0 51.07 0L51.07 0ZM63.23 0.18Q62.30 0.18 61.72-0.17Q61.15-0.52 60.85-1.49Q60.55-2.47 60.55-4.30L60.55-4.30Q60.55-7.20 61.45-8.19Q62.35-9.18 63.77-9.18L63.77-9.18Q64.42-9.18 64.85-8.95Q65.29-8.71 65.29-8.37L65.29-8.37Q65.29-7.96 65.12-7.56L65.12-7.56Q64.51-7.90 63.85-7.90L63.85-7.90Q63.05-7.90 62.55-7.17Q62.05-6.44 62.05-4.28L62.05-4.28Q62.05-3.04 62.22-2.35Q62.39-1.66 62.74-1.39Q63.09-1.12 63.67-1.12L63.67-1.12Q64.08-1.12 64.47-1.23Q64.85-1.35 65.11-1.53L65.11-1.53Q65.25-1.01 65.25-0.74L65.25-0.74Q65.25-0.36 64.67-0.09Q64.10 0.18 63.23 0.18L63.23 0.18ZM69.12 0.18Q68.06 0.18 67.48-0.14Q66.91-0.47 66.67-1.11Q66.44-1.75 66.44-2.81L66.44-2.81L66.44-8.71Q66.44-8.87 66.50-8.93Q66.56-8.98 66.93-8.99Q67.30-9.00 67.93-9.00L67.93-9.00L67.93-2.68Q67.93-1.76 68.18-1.42Q68.42-1.08 69.16-1.08L69.16-1.08Q69.88-1.08 70.36-1.42L70.36-1.42L70.36-8.71Q70.36-8.87 70.43-8.93Q70.51-8.98 70.86-8.99Q71.21-9.00 71.82-9.00L71.82-9.00L71.82-0.47Q71.28-0.18 70.56 0Q69.84 0.18 69.12 0.18L69.12 0.18ZM73.48 0L73.48-8.33Q73.48-8.68 73.59-8.81Q73.71-8.95 73.98-8.97Q74.25-9.00 74.93-9.00L74.93-9.00L74.93-0.29Q74.93-0.13 74.87-0.07Q74.81-0.02 74.45-0.01Q74.09 0 73.48 0L73.48 0ZM74.14-10.26Q73.42-10.26 73.42-11.30L73.42-11.30Q73.42-12.46 74.25-12.46L74.25-12.46Q74.65-12.46 74.81-12.22Q74.97-11.99 74.97-11.41L74.97-11.41Q74.97-10.87 74.75-10.57Q74.54-10.26 74.14-10.26L74.14-10.26ZM78.52 0.18Q77.53 0.18 76.92-0.05Q76.32-0.29 76.32-0.72L76.32-0.72Q76.32-1.15 76.59-1.57L76.59-1.57Q77.33-1.13 78.37-1.13L78.37-1.13Q79.07-1.13 79.46-1.41Q79.85-1.69 79.85-2.23L79.85-2.23Q79.85-2.63 79.69-2.97Q79.52-3.31 79.13-3.65L79.13-3.65L77.38-5.15Q76.34-5.99 76.34-7.06L76.34-7.06Q76.34-8.05 77.09-8.61Q77.83-9.18 79.29-9.18L79.29-9.18Q80.51-9.18 81.03-8.86Q81.54-8.53 81.54-8.17L81.54-8.17Q81.54-8.01 81.45-7.80Q81.36-7.60 81.23-7.43L81.23-7.43Q80.44-7.92 79.45-7.92L79.45-7.92Q78.80-7.92 78.42-7.69Q78.03-7.45 78.03-7.04L78.03-7.04Q78.03-6.77 78.17-6.53Q78.32-6.28 78.75-5.92L78.75-5.92L80.42-4.57Q81.02-4.00 81.26-3.49Q81.50-2.99 81.50-2.32L81.50-2.32Q81.50-1.13 80.70-0.48Q79.90 0.18 78.52 0.18L78.52 0.18ZM82.85 0L82.85-8.33Q82.85-8.68 82.97-8.81Q83.09-8.95 83.36-8.97Q83.63-9.00 84.31-9.00L84.31-9.00L84.31-0.29Q84.31-0.13 84.25-0.07Q84.19-0.02 83.83-0.01Q83.47 0 82.85 0L82.85 0ZM83.52-10.26Q82.80-10.26 82.80-11.30L82.80-11.30Q82.80-12.46 83.63-12.46L83.63-12.46Q84.02-12.46 84.19-12.22Q84.35-11.99 84.35-11.41L84.35-11.41Q84.35-10.87 84.13-10.57Q83.92-10.26 83.52-10.26L83.52-10.26ZM86.20 0L86.20-8.57Q86.76-8.82 87.57-9.00Q88.38-9.18 89.06-9.18L89.06-9.18Q90.47-9.18 91.03-8.63Q91.58-8.08 91.58-6.77L91.58-6.77L91.58-0.29Q91.58-0.13 91.51-0.07Q91.44-0.02 91.07-0.01Q90.70 0 90.09 0L90.09 0L90.09-6.34Q90.09-7.24 89.87-7.58Q89.66-7.92 89.01-7.92L89.01-7.92Q88.69-7.92 88.31-7.84Q87.93-7.76 87.66-7.60L87.66-7.60L87.66-0.29Q87.66-0.13 87.59-0.07Q87.52-0.02 87.16-0.01Q86.80 0 86.20 0L86.20 0ZM96.19-1.22Q97.27-1.22 98.24-1.80L98.24-1.80Q98.37-1.40 98.37-0.81L98.37-0.81Q98.37-0.40 97.64-0.11Q96.91 0.18 95.89 0.18L95.89 0.18Q94.97 0.18 94.35-0.16Q93.73-0.50 93.37-1.42Q93.01-2.34 93.01-4.03L93.01-4.03Q93.01-6.14 93.45-7.27Q93.89-8.41 94.57-8.79Q95.26-9.18 96.19-9.18L96.19-9.18Q98.48-9.18 98.48-6.30L98.48-6.30Q98.48-4.86 98.28-3.96L98.28-3.96Q97.49-3.80 96.44-3.74Q95.38-3.67 94.50-3.67L94.50-3.67Q94.54-2.70 94.73-2.18Q94.91-1.66 95.27-1.44Q95.62-1.22 96.19-1.22L96.19-1.22ZM96.03-7.90Q95.38-7.90 94.99-7.23Q94.59-6.55 94.52-4.82L94.52-4.82Q96.30-4.82 96.98-5.04L96.98-5.04Q97.07-5.45 97.07-6.12L97.07-6.12Q97.06-7.13 96.84-7.52Q96.62-7.90 96.03-7.90L96.03-7.90ZM102.62 0L102.62-8.37Q103.77-9.18 105.07-9.18L105.07-9.18Q105.73-9.18 106.03-8.99Q106.33-8.80 106.33-8.42L106.33-8.42Q106.33-7.97 106.16-7.58L106.16-7.58Q105.79-7.79 105.30-7.79L105.30-7.79Q104.60-7.79 104.11-7.38L104.11-7.38L104.09-0.29Q104.09-0.13 104.02-0.07Q103.95-0.02 103.59-0.01Q103.23 0 102.62 0L102.62 0ZM109.91-1.22Q110.99-1.22 111.96-1.80L111.96-1.80Q112.09-1.40 112.09-0.81L112.09-0.81Q112.09-0.40 111.36-0.11Q110.63 0.18 109.60 0.18L109.60 0.18Q108.68 0.18 108.06-0.16Q107.44-0.50 107.08-1.42Q106.72-2.34 106.72-4.03L106.72-4.03Q106.72-6.14 107.16-7.27Q107.60-8.41 108.29-8.79Q108.97-9.18 109.91-9.18L109.91-9.18Q112.19-9.18 112.19-6.30L112.19-6.30Q112.19-4.86 112.00-3.96L112.00-3.96Q111.20-3.80 110.15-3.74Q109.10-3.67 108.22-3.67L108.22-3.67Q108.25-2.70 108.44-2.18Q108.63-1.66 108.98-1.44Q109.33-1.22 109.91-1.22L109.91-1.22ZM109.75-7.90Q109.10-7.90 108.70-7.23Q108.31-6.55 108.23-4.82L108.23-4.82Q110.02-4.82 110.70-5.04L110.70-5.04Q110.79-5.45 110.79-6.12L110.79-6.12Q110.77-7.13 110.56-7.52Q110.34-7.90 109.75-7.90L109.75-7.90ZM115.42 0.18Q114.43 0.18 113.82-0.05Q113.22-0.29 113.22-0.72L113.22-0.72Q113.22-1.15 113.49-1.57L113.49-1.57Q114.23-1.13 115.27-1.13L115.27-1.13Q115.97-1.13 116.36-1.41Q116.75-1.69 116.75-2.23L116.75-2.23Q116.75-2.63 116.59-2.97Q116.42-3.31 116.03-3.65L116.03-3.65L114.28-5.15Q113.24-5.99 113.24-7.06L113.24-7.06Q113.24-8.05 113.99-8.61Q114.73-9.18 116.19-9.18L116.19-9.18Q117.41-9.18 117.93-8.86Q118.44-8.53 118.44-8.17L118.44-8.17Q118.44-8.01 118.35-7.80Q118.26-7.60 118.13-7.43L118.13-7.43Q117.34-7.92 116.35-7.92L116.35-7.92Q115.70-7.92 115.32-7.69Q114.93-7.45 114.93-7.04L114.93-7.04Q114.93-6.77 115.07-6.53Q115.22-6.28 115.65-5.92L115.65-5.92L117.32-4.57Q117.92-4.00 118.16-3.49Q118.40-2.99 118.40-2.32L118.40-2.32Q118.40-1.13 117.60-0.48Q116.80 0.18 115.42 0.18L115.42 0.18ZM122.18 0.18Q121.45 0.18 121.08-0.14Q120.71-0.45 120.59-1.02Q120.47-1.58 120.47-2.50L120.47-2.50L120.47-7.76L119.25-7.76Q119.25-8.24 119.27-8.54Q119.29-8.84 119.35-8.92Q119.41-9.00 119.56-9.00L119.56-9.00L120.47-9.00L120.47-11.74Q120.47-11.99 120.59-12.09Q120.71-12.19 120.97-12.21Q121.23-12.24 121.91-12.24L121.91-12.24L121.91-9.00L123.79-9.00Q123.79-8.51 123.77-8.21Q123.75-7.90 123.69-7.83Q123.62-7.76 123.48-7.76L123.48-7.76L121.91-7.76L121.91-2.50Q121.91-1.76 122.03-1.41Q122.15-1.06 122.58-1.06L122.58-1.06Q122.87-1.06 123.08-1.13Q123.30-1.19 123.62-1.33L123.62-1.33Q123.73-0.97 123.73-0.61L123.73-0.61Q123.73-0.18 123.28 0Q122.83 0.18 122.18 0.18L122.18 0.18ZM127.04 0.18Q125.89 0.18 125.24-0.37Q124.58-0.92 124.58-2.56L124.58-2.56Q124.58-4.27 125.24-4.89Q125.89-5.51 126.99-5.51L126.99-5.51Q127.84-5.51 128.30-5.27L128.30-5.27L128.30-6.70Q128.30-7.31 128.03-7.54Q127.76-7.78 127.19-7.78L127.19-7.78Q126.54-7.78 125.87-7.66Q125.21-7.54 124.79-7.36L124.79-7.36Q124.60-7.74 124.60-8.21L124.60-8.21Q124.60-8.57 124.79-8.69L124.79-8.69Q125.06-8.87 125.84-9.03Q126.61-9.18 127.55-9.18L127.55-9.18Q128.72-9.18 129.24-8.68Q129.76-8.17 129.76-6.98L129.76-6.98L129.76-6.03Q129.76-2.07 129.65-0.43L129.65-0.43Q129.22-0.16 128.56 0.01Q127.89 0.18 127.04 0.18L127.04 0.18ZM127.30-1.04Q127.58-1.04 127.85-1.13Q128.12-1.22 128.25-1.33L128.25-1.33Q128.30-1.94 128.30-4.25L128.30-4.25Q127.96-4.43 127.46-4.43L127.46-4.43Q126.81-4.43 126.45-4.05Q126.09-3.67 126.09-2.59L126.09-2.59Q126.09-1.67 126.39-1.36Q126.68-1.04 127.30-1.04L127.30-1.04ZM133.92 0.18Q132.86 0.18 132.28-0.14Q131.71-0.47 131.47-1.11Q131.24-1.75 131.24-2.81L131.24-2.81L131.24-8.71Q131.24-8.87 131.30-8.93Q131.36-8.98 131.73-8.99Q132.10-9.00 132.73-9.00L132.73-9.00L132.73-2.68Q132.73-1.76 132.98-1.42Q133.22-1.08 133.96-1.08L133.96-1.08Q134.68-1.08 135.16-1.42L135.16-1.42L135.16-8.71Q135.16-8.87 135.23-8.93Q135.31-8.98 135.66-8.99Q136.01-9.00 136.62-9.00L136.62-9.00L136.62-0.47Q136.08-0.18 135.36 0Q134.64 0.18 133.92 0.18L133.92 0.18ZM138.24 0L138.24-8.37Q139.39-9.18 140.69-9.18L140.69-9.18Q141.35-9.18 141.65-8.99Q141.95-8.80 141.95-8.42L141.95-8.42Q141.95-7.97 141.79-7.58L141.79-7.58Q141.41-7.79 140.92-7.79L140.92-7.79Q140.22-7.79 139.73-7.38L139.73-7.38L139.72-0.29Q139.72-0.13 139.64-0.07Q139.57-0.02 139.21-0.01Q138.85 0 138.24 0L138.24 0ZM145.15 0.18Q144.00 0.18 143.34-0.37Q142.69-0.92 142.69-2.56L142.69-2.56Q142.69-4.27 143.34-4.89Q144.00-5.51 145.10-5.51L145.10-5.51Q145.94-5.51 146.41-5.27L146.41-5.27L146.41-6.70Q146.41-7.31 146.14-7.54Q145.87-7.78 145.30-7.78L145.30-7.78Q144.65-7.78 143.98-7.66Q143.32-7.54 142.90-7.36L142.90-7.36Q142.70-7.74 142.70-8.21L142.70-8.21Q142.70-8.57 142.90-8.69L142.90-8.69Q143.17-8.87 143.95-9.03Q144.72-9.18 145.66-9.18L145.66-9.18Q146.83-9.18 147.35-8.68Q147.87-8.17 147.87-6.98L147.87-6.98L147.87-6.03Q147.87-2.07 147.76-0.43L147.76-0.43Q147.33-0.16 146.66 0.01Q146.00 0.18 145.15 0.18L145.15 0.18ZM145.40-1.04Q145.69-1.04 145.96-1.13Q146.23-1.22 146.36-1.33L146.36-1.33Q146.41-1.94 146.41-4.25L146.41-4.25Q146.07-4.43 145.57-4.43L145.57-4.43Q144.92-4.43 144.56-4.05Q144.20-3.67 144.20-2.59L144.20-2.59Q144.20-1.67 144.50-1.36Q144.79-1.04 145.40-1.04L145.40-1.04ZM149.35 0L149.35-8.57Q149.90-8.82 150.71-9.00Q151.52-9.18 152.21-9.18L152.21-9.18Q153.61-9.18 154.17-8.63Q154.73-8.08 154.73-6.77L154.73-6.77L154.73-0.29Q154.73-0.13 154.66-0.07Q154.58-0.02 154.22-0.01Q153.85 0 153.23 0L153.23 0L153.23-6.34Q153.23-7.24 153.02-7.58Q152.80-7.92 152.15-7.92L152.15-7.92Q151.83-7.92 151.45-7.84Q151.07-7.76 150.80-7.60L150.80-7.60L150.80-0.29Q150.80-0.13 150.73-0.07Q150.66-0.02 150.30-0.01Q149.94 0 149.35 0L149.35 0ZM158.71 0.18Q157.97 0.18 157.60-0.14Q157.23-0.45 157.11-1.02Q157.00-1.58 157.00-2.50L157.00-2.50L157.00-7.76L155.77-7.76Q155.77-8.24 155.79-8.54Q155.81-8.84 155.87-8.92Q155.93-9.00 156.08-9.00L156.08-9.00L157.00-9.00L157.00-11.74Q157.00-11.99 157.11-12.09Q157.23-12.19 157.49-12.21Q157.75-12.24 158.44-12.24L158.44-12.24L158.44-9.00L160.31-9.00Q160.31-8.51 160.29-8.21Q160.27-7.90 160.21-7.83Q160.15-7.76 160.00-7.76L160.00-7.76L158.44-7.76L158.44-2.50Q158.44-1.76 158.55-1.41Q158.67-1.06 159.10-1.06L159.10-1.06Q159.39-1.06 159.61-1.13Q159.82-1.19 160.15-1.33L160.15-1.33Q160.25-0.97 160.25-0.61L160.25-0.61Q160.25-0.18 159.80 0Q159.35 0.18 158.71 0.18L158.71 0.18Z" fill="#e18650" fontsize="18" transform="matrix(1,0,0,1,189.45,186.025)"></path>
                <path xmlns="http://www.w3.org/2000/svg" id="SvgjsPath27027953" d="M35.15 0.89Q29.97-7.70 25.57-14.58Q21.16-21.46 19.98-23.31L19.98-23.31L18.87-23.31L19.09-10.14Q19.17-7.99 19.76-7.18Q20.35-6.36 21.98-6.36L21.98-6.36Q22.72-6.36 23.46-6.47Q24.20-6.59 24.49-6.66L24.49-6.66L25.16-5.99L24.35 0.30Q23.01 0.22 19.54 0.11Q16.06 0 12.95 0L12.95 0Q9.77 0 6.18 0.26Q2.59 0.52 1.55 0.59L1.55 0.59L2.29-6.07Q4.44-6.36 5.44-7.44Q6.44-8.51 6.51-10.73L6.51-10.73L7.40-36.56Q7.40-38.33 6.99-39.22Q6.59-40.11 5.44-40.52Q4.29-40.92 1.85-41.22L1.85-41.22L0.96-42.25L1.41-48.25Q2.37-48.17 5.66-48.03Q8.95-47.88 12.36-47.88L12.36-47.88Q14.87-47.88 17.91-47.99Q20.94-48.10 21.83-48.17L21.83-48.17Q25.97-40.70 31.01-32.60Q36.04-24.49 36.04-24.64L36.04-24.64L37.15-24.64L36.85-38.18Q36.78-40.03 36.26-40.70Q35.74-41.37 34.41-41.37L34.41-41.37L32.12-41.37L31.75-42.18L32.12-48.17Q33.45-48.10 37.07-47.99Q40.70-47.88 44.40-47.88L44.40-47.88Q47.73-47.88 50.69-47.95Q53.65-48.03 54.69-48.10L54.69-48.10L54.32-41.44Q51.95-41.14 51.02-40.11Q50.10-39.07 50.02-36.78L50.02-36.78L49.06 0L35.15 0.89ZM74.74 0.30L74.22-0.22L74.59-5.55Q76.15-5.70 77.07-5.88Q78.00-6.07 78.18-6.36Q78.37-6.66 78.37-7.47L78.37-7.47L78.29-8.14L78.14-9.69Q76.44-9.77 73.63-9.77L73.63-9.77Q72.82-9.77 70.74-9.62L70.74-9.62L68.97-9.55L68.52-7.62L68.45-6.59Q68.45-5.92 68.67-5.77Q68.89-5.62 70.08-5.62L70.08-5.62L71.41-5.62L72.00-4.96L71.48 0.22Q70.52 0.22 67.71 0.15Q64.90 0.07 61.86 0.07L61.86 0.07L53.50 0.07L53.95-5.33Q56.02-5.92 56.83-8.21L56.83-8.21L66.30-37L84.14-37.96L85.10-37.15Q86.06-33.52 88.39-24.61Q90.72-15.69 92.50-9.25L92.50-9.25Q93.02-7.33 93.80-6.44Q94.57-5.55 95.83-5.40L95.83-5.40L96.27-4.74L95.76 0.15L86.88 0.07Q82.44 0.07 79.11 0.15Q75.78 0.22 74.74 0.30L74.74 0.30ZM71.04-17.61L73.85-17.61Q75.63-17.61 76.74-17.69L76.74-17.69L74.96-26.86L73.56-26.86L71.04-17.61ZM118.10 0.30L117.59-0.22L117.96-5.55Q119.51-5.70 120.43-5.88Q121.36-6.07 121.54-6.36Q121.73-6.66 121.73-7.47L121.73-7.47L121.66-8.14L121.51-9.69Q119.81-9.77 116.99-9.77L116.99-9.77Q116.18-9.77 114.11-9.62L114.11-9.62L112.33-9.55L111.89-7.62L111.81-6.59Q111.81-5.92 112.04-5.77Q112.26-5.62 113.44-5.62L113.44-5.62L114.77-5.62L115.37-4.96L114.85 0.22Q113.89 0.22 111.07 0.15Q108.26 0.07 105.23 0.07L105.23 0.07L96.87 0.07L97.31-5.33Q99.38-5.92 100.20-8.21L100.20-8.21L109.67-37L127.50-37.96L128.46-37.15Q129.43-33.52 131.76-24.61Q134.09-15.69 135.86-9.25L135.86-9.25Q136.38-7.33 137.16-6.44Q137.94-5.55 139.19-5.40L139.19-5.40L139.64-4.74L139.12 0.15L130.24 0.07Q125.80 0.07 122.47 0.15Q119.14 0.22 118.10 0.30L118.10 0.30ZM114.40-17.61L117.22-17.61Q118.99-17.61 120.10-17.69L120.10-17.69L118.33-26.86L116.92-26.86L114.40-17.61ZM154.14 0.67Q150.89 0.67 148.11 0.11Q145.34-0.44 143.52-1.11Q141.71-1.78 141.71-1.85L141.71-1.85L140.90-2.96Q141.12-3.92 141.64-7.07Q142.15-10.21 142.30-12.36L142.30-12.36L150.66-12.95Q150.66-10.43 152.00-9.10Q153.33-7.77 155.70-7.77L155.70-7.77Q157.32-7.77 158.25-8.21Q159.17-8.66 159.17-9.47L159.17-9.47Q159.17-10.73 157.73-11.58Q156.29-12.43 153.11-13.62L153.11-13.62Q151.70-14.06 150.52-14.58L150.52-14.58Q146.22-16.35 143.71-18.80Q141.19-21.24 141.19-25.38L141.19-25.38Q141.19-29.16 143.60-32.00Q146.00-34.85 150.44-36.41Q154.88-37.96 160.73-37.96L160.73-37.96Q163.76-37.96 166.43-37.59Q169.09-37.22 170.68-36.85Q172.27-36.48 172.72-36.33L172.72-36.33L173.53-34.93Q173.31-34.11 172.72-31.12Q172.12-28.12 171.83-24.86L171.83-24.86L164.13-24.35L163.32-24.86L163.32-25.46Q163.32-27.23 162.21-28.23Q161.10-29.23 159.17-29.23L159.17-29.23Q157.69-29.23 156.73-28.67Q155.77-28.12 155.77-27.16L155.77-27.16Q155.77-25.90 157.21-25.05Q158.66-24.20 161.84-23.09L161.84-23.09L163.47-22.50Q168.20-20.72 171.01-18.31Q173.83-15.91 173.83-11.47L173.83-11.47Q173.83-5.77 168.61-2.55Q163.39 0.67 154.14 0.67L154.14 0.67ZM177.75 0.44L175.38-3.18L194.99-30.64L191.07-30.04Q188.63-29.53 187.59-28.97Q186.55-28.42 186.22-27.31Q185.89-26.20 185.81-23.68L185.81-23.68L177.38-23.16Q177.53-24.64 177.86-29.34Q178.19-34.04 178.27-37.44L178.27-37.44L179.01-38.04L190.11-37.44L211.05-37.52L212.75-34.11Q203.35-22.64 192.70-6.96L192.70-6.96L198.32-7.92Q201.28-8.51 202.57-10.25Q203.87-11.99 204.17-15.84L204.17-15.84L212.53-16.43Q212.31-14.87 211.75-9.84Q211.20-4.81 211.12-1.18L211.12-1.18L209.79 0.15L182.93-0.15L177.75 0.44Z" fill="#dd5854" fontsize="74" transform="matrix(1,0,0,1,163.145,256.68)"></path>
              </svg>